# xmcd
#
# Track frame offsets:
#	150
#	11887
#	26847
#	39897
#	50395
#	63325
#	79260
#	91195
#	106422
#	117670
#	133330
#	146815
#	161422
#	176695
#	189867
#	200134
#	212797
#	225200
#	241527
#	253870
#
# Disc length: 3548 seconds
#
# Revision: 0
# Processed by: cddbd v1.5.2PL0 Copyright (c) Steve Scherf et al.
# Submitted via: EasyCDDAExtractor 10.5.1.1
#
DISCID=160dda14
DTITLE=Tulipunaruusut
DYEAR=1997
DGENRE=Pop
TTITLE0=Karjalan marjaana
TTITLE1=Tulipunaruusut
TTITLE2=Yö altailla
TTITLE3=Irja
TTITLE4=Limperin muorin humppa
TTITLE5=Kuusamoon
TTITLE6=Pustan sävel
TTITLE7=Heili karjalasta
TTITLE8=Odessa
TTITLE9=Ilta oulunjoella
TTITLE10=Jätkän humppa
TTITLE11=Ruhtinaan viulu
TTITLE12=Bella ciao
TTITLE13=Ilta skanssissa
TTITLE14=Silmät tummat kuin yö
TTITLE15=Koivu ja tähti
TTITLE16=Jätkän rakkaus
TTITLE17=Elämä ottaa elämä antaa
TTITLE18=Reiluja reiskoja huimia veikkoja
TTITLE19=Häämuistojen valssi
EXTD=
EXTT0=
EXTT1=
EXTT2=
EXTT3=
EXTT4=
EXTT5=
EXTT6=
EXTT7=
EXTT8=
EXTT9=
EXTT10=
EXTT11=
EXTT12=
EXTT13=
EXTT14=
EXTT15=
EXTT16=
EXTT17=
EXTT18=
EXTT19=
PLAYORDER=
